<?xml version="1.0" encoding="UTF-8" standalone="no"?>
<svg xmlns="http://www.w3.org/2000/svg" xmlns:dc="http://purl.org/dc/elements/1.1/" xmlns:cc="http://creativecommons.org/ns#" xmlns:rdf="http://www.w3.org/1999/02/22-rdf-syntax-ns#" width="992" height="497">
<metadata><rdf:RDF><cc:Work rdf:about="">
<dc:format>image/svg+xml</dc:format><dc:type rdf:resource="http://purl.org/dc/dcmitype/StillImage"/>
</cc:Work></rdf:RDF></metadata>
<path d="M2.888,495.728H987.327L495.108,3.51Z" style="fill:#ffffff;stroke:#000000;stroke-width:1.988"/>
<path d="M540.624,256.347l-23.924,17.089-106.997-75.713v-64.408l23.922-16.825 l38.384,26.815v-53.8924l23.924-17.0894 24.186,17.0894v53.8924l17.352-12.094 20.507,14.461 20.767-14.723 24.186,17.089v64.409l-24.186,16.825-20.767-14.724 -17.352,12.358Z M416.278,133.313l17.351,12.357 17.614-12.357-17.614-12.356Z M437.045,148.036l17.351,12.356 17.614-12.356-17.351-12.358Z M457.551,162.758l17.615,12.355 17.614-12.355-17.614-12.356Z M495.933,77.055l-17.614,12.356 17.614,12.353 17.612-12.353Z M495.933,106.498l-17.614,12.356 17.614,12.355 17.351-12.618Z M495.933,135.678l-17.614,12.358 17.614,12.356 17.351-12.356Z M478.321,177.479l17.614,12.094 17.351-12.356-17.351-12.094Z M499.088,191.938l17.612,12.356 17.352-12.356-17.352-12.354Z M537.469,135.678l-17.614,12.358 17.352,12.356 17.614-12.356Z M578.745,135.678l-17.354,12.358 17.354,12.356 17.612-12.356Z"/><script xmlns=""/></svg>